<svg width="112" height="16" viewBox="0 0 112 16" fill="none" xmlns="http://www.w3.org/2000/svg">
<rect width="16" height="16" fill="white"/>
<path fill-rule="evenodd" clip-rule="evenodd" d="M11.9325 14.5C11.8313 14.5 11.7295 14.4764 11.636 14.4287L8.00044 12.5662L4.36365 14.4287C4.14984 14.539 3.88956 14.5205 3.69293 14.3816C3.49757 14.2428 3.39957 14.0079 3.4403 13.7754L4.13456 9.83276L1.19268 7.04172C1.01895 6.87685 0.956589 6.63078 1.03104 6.4064C1.10613 6.18203 1.30531 6.0184 1.54458 5.98431L5.61155 5.4054L7.42963 1.81726C7.64408 1.39455 8.35616 1.39455 8.57062 1.81726L10.3887 5.4054L14.4557 5.98431C14.6956 6.0184 14.8947 6.18203 14.9692 6.4064C15.0437 6.63078 14.9813 6.87685 14.8076 7.04172L11.8657 9.83276L12.5599 13.7754C12.6007 14.0079 12.5027 14.2428 12.3067 14.3816C12.1953 14.4603 12.0642 14.5 11.9325 14.5Z" fill="#313037"/>
<rect width="16" height="16" transform="translate(24)" fill="white"/>
<path fill-rule="evenodd" clip-rule="evenodd" d="M35.9325 14.5C35.8313 14.5 35.7295 14.4764 35.636 14.4287L32.0004 12.5662L28.3637 14.4287C28.1498 14.539 27.8896 14.5205 27.6929 14.3816C27.4976 14.2428 27.3996 14.0079 27.4403 13.7754L28.1346 9.83276L25.1927 7.04172C25.019 6.87685 24.9566 6.63078 25.031 6.4064C25.1061 6.18203 25.3053 6.0184 25.5446 5.98431L29.6116 5.4054L31.4296 1.81726C31.6441 1.39455 32.3562 1.39455 32.5706 1.81726L34.3887 5.4054L38.4557 5.98431C38.6956 6.0184 38.8947 6.18203 38.9692 6.4064C39.0437 6.63078 38.9813 6.87685 38.8076 7.04172L35.8657 9.83276L36.5599 13.7754C36.6007 14.0079 36.5027 14.2428 36.3067 14.3816C36.1953 14.4603 36.0642 14.5 35.9325 14.5Z" fill="#313037"/>
<rect width="16" height="16" transform="translate(48)" fill="white"/>
<path fill-rule="evenodd" clip-rule="evenodd" d="M59.9325 14.5C59.8313 14.5 59.7295 14.4764 59.636 14.4287L56.0004 12.5662L52.3637 14.4287C52.1498 14.539 51.8896 14.5205 51.6929 14.3816C51.4976 14.2428 51.3996 14.0079 51.4403 13.7754L52.1346 9.83276L49.1927 7.04172C49.019 6.87685 48.9566 6.63078 49.031 6.4064C49.1061 6.18203 49.3053 6.0184 49.5446 5.98431L53.6116 5.4054L55.4296 1.81726C55.6441 1.39455 56.3562 1.39455 56.5706 1.81726L58.3887 5.4054L62.4557 5.98431C62.6956 6.0184 62.8947 6.18203 62.9692 6.4064C63.0437 6.63078 62.9813 6.87685 62.8076 7.04172L59.8657 9.83276L60.5599 13.7754C60.6007 14.0079 60.5027 14.2428 60.3067 14.3816C60.1953 14.4603 60.0642 14.5 59.9325 14.5Z" fill="#313037"/>
<rect width="16" height="16" transform="translate(72)" fill="white"/>
<path fill-rule="evenodd" clip-rule="evenodd" d="M83.9325 14.5C83.8313 14.5 83.7295 14.4764 83.636 14.4287L80.0004 12.5662L76.3637 14.4287C76.1498 14.539 75.8896 14.5205 75.6929 14.3816C75.4976 14.2428 75.3996 14.0079 75.4403 13.7754L76.1346 9.83276L73.1927 7.04172C73.019 6.87685 72.9566 6.63078 73.031 6.4064C73.1061 6.18203 73.3053 6.0184 73.5446 5.98431L77.6116 5.4054L79.4296 1.81726C79.6441 1.39455 80.3562 1.39455 80.5706 1.81726L82.3887 5.4054L86.4557 5.98431C86.6956 6.0184 86.8947 6.18203 86.9692 6.4064C87.0437 6.63078 86.9813 6.87685 86.8076 7.04172L83.8657 9.83276L84.5599 13.7754C84.6007 14.0079 84.5027 14.2428 84.3067 14.3816C84.1953 14.4603 84.0642 14.5 83.9325 14.5Z" fill="#313037"/>
<rect width="16" height="16" transform="translate(96)" fill="white"/>
<path fill-rule="evenodd" clip-rule="evenodd" d="M107.932 14.5C107.831 14.5 107.73 14.4764 107.636 14.4287L104 12.5662L100.364 14.4287C100.15 14.539 99.8896 14.5205 99.6929 14.3816C99.4976 14.2428 99.3996 14.0079 99.4403 13.7754L100.135 9.83276L97.1927 7.04172C97.019 6.87685 96.9566 6.63078 97.031 6.4064C97.1061 6.18203 97.3053 6.0184 97.5446 5.98431L101.612 5.4054L103.43 1.81726C103.644 1.39455 104.356 1.39455 104.571 1.81726L106.389 5.4054L110.456 5.98431C110.696 6.0184 110.895 6.18203 110.969 6.4064C111.044 6.63078 110.981 6.87685 110.808 7.04172L107.866 9.83276L108.56 13.7754C108.601 14.0079 108.503 14.2428 108.307 14.3816C108.195 14.4603 108.064 14.5 107.932 14.5Z" fill="#E7E7E7"/>
</svg>
